<svg width="800" height="800" viewBox="0 0 800 800" fill="none" xmlns="http://www.w3.org/2000/svg">
  <!-- Letter "t" in dark blue -->
  <path d="M177.6 168.8H348.8V281.6H436.8V454.4H348.8V627.2C348.8 651.2 348.8 675.2 324.8 699.2C300.8 723.2 276.8 723.2 252.8 723.2H177.6V454.4H222.4V257.6H177.6V168.8Z" fill="#1a2456"/>

  <!-- House icon in light blue -->
  <path d="M724 408L724 627.2C724 651.2 724 675.2 700 699.2C676 723.2 652 723.2 628 723.2H460C436 723.2 412 699.2 412 675.2L412 627.2L412 408L568 280L724 408Z" fill="#6b7fef"/>

  <!-- Door/window cutout in house -->
  <ellipse cx="568" cy="600" rx="80" ry="100" fill="white"/>
</svg>
